<?xml version="1.0" encoding="UTF-8" standalone="no"?>
<!-- Created with Inkscape (http://www.inkscape.org/) -->

<svg
   xmlns:dc="http://purl.org/dc/elements/1.1/"
   xmlns:cc="http://creativecommons.org/ns#"
   xmlns:rdf="http://www.w3.org/1999/02/22-rdf-syntax-ns#"
   xmlns:svg="http://www.w3.org/2000/svg"
   xmlns="http://www.w3.org/2000/svg"
   xmlns:sodipodi="http://sodipodi.sourceforge.net/DTD/sodipodi-0.dtd"
   xmlns:inkscape="http://www.inkscape.org/namespaces/inkscape"
   version="1.1"
   id="svg64"
   width="174.14211"
   height="44.041069"
   viewBox="0 0 174.1421 44.04107"
   sodipodi:docname="logo_white.svg"
   inkscape:version="0.92.3 (d244b95, 2018-08-02)">
  <metadata
     id="metadata70">
    <rdf:RDF>
      <cc:Work
         rdf:about="">
        <dc:format>image/svg+xml</dc:format>
        <dc:type
           rdf:resource="http://purl.org/dc/dcmitype/StillImage" />
        <dc:title></dc:title>
      </cc:Work>
    </rdf:RDF>
  </metadata>
  <defs
     id="defs68" />
  <sodipodi:namedview
     pagecolor="#ffffff"
     bordercolor="#666666"
     borderopacity="1"
     objecttolerance="10"
     gridtolerance="10"
     guidetolerance="10"
     inkscape:pageopacity="0"
     inkscape:pageshadow="2"
     inkscape:window-width="1850"
     inkscape:window-height="1016"
     id="namedview66"
     showgrid="false"
     inkscape:zoom="4"
     inkscape:cx="114.01992"
     inkscape:cy="39.019228"
     inkscape:window-x="70"
     inkscape:window-y="27"
     inkscape:window-maximized="1"
     inkscape:current-layer="svg64"
     fit-margin-top="-0.1"
     fit-margin-left="0"
     fit-margin-right="0"
     fit-margin-bottom="0"
     showguides="true"
     inkscape:guide-bbox="true">
    <sodipodi:guide
       position="51.74751,107.99984"
       orientation="0,1"
       id="guide266"
       inkscape:locked="false" />
    <sodipodi:guide
       position="53.868831,65.927"
       orientation="1,0"
       id="guide268"
       inkscape:locked="false" />
    <sodipodi:guide
       position="-1.8158261,65.573446"
       orientation="1,0"
       id="guide270"
       inkscape:locked="false" />
    <sodipodi:guide
       position="48.875645,47.328277"
       orientation="0,1"
       id="guide365"
       inkscape:locked="false" />
    <sodipodi:guide
       position="81.625644,-2.9217239"
       orientation="0,1"
       id="guide367"
       inkscape:locked="false" />
    <sodipodi:guide
       position="-44.374352,18.828276"
       orientation="0,1"
       id="guide369"
       inkscape:locked="false" />
    <sodipodi:guide
       position="44.500001,44.078274"
       orientation="0,1"
       id="guide403"
       inkscape:locked="false" />
    <sodipodi:guide
       position="34.500002,-0.17172559"
       orientation="0,1"
       id="guide405"
       inkscape:locked="false" />
  </sodipodi:namedview>
  <path
     style="fill:#ffffff;stroke-width:0.09419522"
     d="m 2.0919086,43.954725 c -0.533525,-0.08764 -1.22782102,-0.518706 -1.50025702,-0.93146 -0.2887,-0.437394 -0.486372,-1.304023 -0.572186,-2.508563 -0.08396,-1.178438 0.123503,-29.055612 0.245037,-32.9271794 0.142913,-4.5525782 0.31752,-5.544087 1.11139602,-6.3110797 0.665493,-0.64295871 1.674849,-1.11042361 2.699419,-1.25018671 1.252402,-0.1708416 40.4217284,-0.1671119 41.6342874,0.00394 1.029325,0.1452255 2.045318,0.6142744 2.699423,1.24622321 1.133496,1.0951182 1.200837,2.3163027 1.233565,22.3713636 0.02462,15.059913 -3.74e-4,16.13528 -0.411722,17.755798 -0.315329,1.242228 -1.094268,2.097702 -2.21715,2.435006 l -0.67399,0.202482 -21.93287,-0.01178 C 12.343787,44.022789 2.3020576,43.989249 2.0919086,43.954729 Z M 11.940618,34.917201 V 28.430797 L 11.109,28.383377 C 9.6157656,28.298247 9.5322366,28.14181 9.3975406,25.178124 9.3451606,24.025609 9.2743366,18.447894 9.2401556,12.783205 l -0.06215,-10.2994456 -2.174564,0.041978 c -1.259838,0.024318 -2.317456,0.087665 -2.514259,0.1505957 -0.186833,0.059742 -0.600114,0.2769385 -0.918404,0.4826585 L 2.9920746,3.5330243 V 21.936907 40.340789 l 0.494525,0.328118 c 0.972291,0.645116 1.436864,0.707111 5.416225,0.722757 l 3.0377954,0.01194 z m 11.586011,-0.01306 v -6.499469 h -0.551115 c -0.709945,0 -1.118223,-0.146304 -1.277097,-0.45764 -0.445408,-0.872834 -0.520369,-3.06854 -0.523826,-15.343608 l -0.0029,-10.102439 h -2.072305 -2.072293 l -0.0034,9.160486 c -0.0038,10.038777 -0.09695,14.51669 -0.323979,15.56306 -0.204704,0.943453 -0.393493,1.104301 -1.361944,1.160362 l -0.75975,0.04398 v 6.487368 6.487365 h 4.474273 4.474273 v -6.499465 z m 11.680206,0 v -6.499469 l -0.541622,-5.65e-4 c -0.778236,-7.6e-4 -1.221791,-0.146376 -1.380453,-0.453195 -0.432907,-0.837151 -0.521079,-3.465397 -0.524355,-15.630118 l -0.0027,-9.819813 h -2.064471 -2.064472 l -0.04282,11.797951 c -0.0437,12.037865 -0.06919,12.884188 -0.409449,13.601246 -0.167107,0.352153 -0.51847,0.504488 -1.163617,0.504488 -0.388694,0 -0.456908,0.03115 -0.567496,0.259037 -0.143615,0.295958 -0.259491,4.371763 -0.273152,9.60791 l -0.0082,3.131991 h 4.52137 4.521372 z m 10.00766,6.280672 c 0.297571,-0.0854 0.774429,-0.310251 1.059695,-0.499653 l 0.518665,-0.344371 V 21.936902 3.5330202 L 46.214138,3.158983 C 45.895846,2.9532629 45.482568,2.7360664 45.295737,2.6763244 45.098579,2.6132782 44.037076,2.5500052 42.766001,2.5255282 l -2.190039,-0.04217 -0.0034,5.2130994 c -0.0046,6.9146444 -0.161089,17.8988194 -0.270508,18.9851034 -0.139762,1.387517 -0.375722,1.639605 -1.596274,1.70537 l -0.78702,0.0424 0.05472,0.670583 c 0.03009,0.368821 0.08271,3.291734 0.116919,6.495362 l 0.0622,5.82478 3.260472,-0.03999 c 2.65888,-0.0326 3.360298,-0.06864 3.801511,-0.195267 z"
     id="path38"
     inkscape:connector-curvature="0" />
  <path
     style="fill:#ffffff;stroke-width:0.00552427"
     d=""
     id="path62"
     inkscape:connector-curvature="0" />
  <path
     style="fill:#ffffff;stroke-width:0.26034907"
     d="M 68.830906,41.185596 C 63.968252,40.172891 60.549309,37.817719 58.602082,34.139365 l -0.856254,-1.617487 0.986429,-0.616867 c 0.542539,-0.339276 1.75399,-1.043645 2.692119,-1.56526 l 1.705689,-0.948398 1.809024,1.835074 c 2.67627,2.714804 3.672145,3.229798 6.23496,3.224253 1.624666,-0.0036 2.311855,-0.127124 3.124188,-0.561942 2.460621,-1.317114 3.274796,-3.210056 2.247107,-5.22449 -0.78767,-1.543958 -2.250906,-2.433996 -8.365311,-5.088348 -3.660046,-1.588879 -5.111306,-2.42951 -6.288573,-3.642603 -2.105532,-2.169607 -3.228245,-6.039925 -2.585376,-8.912559 0.46161,-2.0626864 2.12855,-4.3952584 4.110071,-5.7512801 2.35286,-1.6101387 4.199029,-2.2284604 7.108181,-2.3806755 2.928061,-0.1532088 4.858197,0.1924321 6.971386,1.2484106 2.542166,1.270336 5.78456,4.5303956 5.78456,5.8160776 0,0.4179754 -3.379313,2.8211054 -4.440859,3.1580294 -0.370756,0.117669 -0.883197,-0.166241 -1.874825,-1.038733 -0.750538,-0.660368 -2.094109,-1.561993 -2.98571,-2.003612 -3.490335,-1.7287944 -6.516277,-0.3099464 -7.009236,3.286594 -0.281005,2.05016 0.405434,2.58678 6.938061,5.423768 5.920841,2.571301 8.513399,4.502324 9.942699,7.405648 0.78226,1.588996 0.84996,1.924086 0.82618,4.089302 -0.034,3.099302 -0.68509,4.835814 -2.58068,6.883281 -1.62565,1.755895 -3.740023,2.904765 -6.773983,3.680719 -1.856772,0.474882 -5.056448,0.646092 -6.491023,0.347329 z"
     id="path89"
     inkscape:connector-curvature="0" />
  <path
     style="fill:#ffffff;stroke-width:0.26034907"
     d="M 90.309702,21.95843 V 3.3434695 h 3.90523 3.90524 V 21.95843 40.57339 h -3.90524 -3.90523 z"
     id="path91"
     inkscape:connector-curvature="0" />
  <path
     style="fill:#ffffff;stroke-width:0.26034907"
     d="M 104.36855,21.95843 V 3.3434695 h 11.58553 11.58554 v 3.5147141 3.5147114 h -7.6803 -7.6803 v 3.775062 c 0,2.076283 0.0293,3.781634 0.0651,3.789663 0.0358,0.0082 2.6215,0.113902 5.74601,0.235296 3.12451,0.121375 5.7241,0.263867 5.77688,0.316639 0.0528,0.05278 0.17879,1.587085 0.28005,3.409591 l 0.18412,3.313648 h -6.02609 -6.02606 v 4.03541 4.03541 h 7.94064 7.94065 v 3.644887 3.644889 h -11.84589 -11.84588 z"
     id="path93"
     inkscape:connector-curvature="0" />
  <path
     style="fill:#ffffff;stroke-width:0.26034907"
     d="M 134.3087,21.95147 V 3.3295508 l 3.79409,0.072046 3.79409,0.072046 4.62227,10.1536162 c 4.97952,10.938349 7.45102,16.011468 7.8004,16.011468 0.24043,0 3.18976,-6.205407 8.75459,-18.419699 l 3.5881,-7.875559 h 3.73994 3.73992 v 18.61496 18.61496 h -3.90524 -3.90523 v -4.384068 c 0,-6.178179 -0.30915,-14.68139 -0.52487,-14.436617 -0.0998,0.113164 -1.92624,4.231973 -4.05891,9.152944 -2.82753,6.524307 -4.01857,9.000838 -4.39825,9.145224 -0.28639,0.10891 -1.90585,0.241733 -3.59879,0.295176 l -3.0781,0.09716 -3.93056,-9.177305 c -2.16181,-5.047517 -4.02779,-9.177306 -4.14659,-9.177306 -0.11875,0 -0.21604,2.207275 -0.21604,4.905053 0,2.697779 -0.0771,6.856856 -0.17096,9.242393 l -0.17117,4.337342 h -3.86434 -3.86435 z"
     id="path95"
     inkscape:connector-curvature="0" />
</svg>
